<?xml version="1.0" standalone="no"?>
<!DOCTYPE svg PUBLIC "-//W3C//DTD SVG 20010904//EN"
 "http://www.w3.org/TR/2001/REC-SVG-20010904/DTD/svg10.dtd">
<svg version="1.0" xmlns="http://www.w3.org/2000/svg"
 width="1024.000000pt" height="1024.000000pt" viewBox="0 0 1024.000000 1024.000000"
 preserveAspectRatio="xMidYMid meet">

<g transform="translate(0.000000,1024.000000) scale(0.100000,-0.100000)"
fill="#000000" stroke="none">
<path d="M3797 7074 c-1 -1 -92 -5 -202 -9 -110 -3 -245 -10 -300 -14 -55 -5
-109 -8 -120 -8 -70 1 -389 -36 -510 -59 -171 -32 -211 -51 -306 -138 -44 -41
-189 -226 -189 -242 0 -4 -7 -15 -16 -25 -43 -47 -152 -329 -196 -504 -21 -85
-32 -113 -77 -185 -43 -71 -97 -210 -121 -311 -12 -52 -30 -130 -40 -174 -85
-362 -90 -404 -97 -771 -6 -317 8 -474 52 -599 14 -38 25 -75 25 -82 0 -7 -17
-15 -37 -19 -55 -10 -105 -33 -129 -59 -18 -20 -92 -41 -131 -38 -15 1 -17
-16 -4 -36 6 -10 21 -11 58 -6 61 8 64 4 88 -100 27 -119 35 -131 97 -144 138
-29 148 -33 148 -61 0 -31 25 -121 46 -167 8 -17 14 -38 14 -46 0 -24 68 -148
98 -181 15 -16 42 -35 60 -43 30 -12 37 -12 70 4 28 13 40 28 50 58 13 38 13
58 -1 289 -2 25 8 35 93 93 52 36 111 80 132 98 20 18 74 59 120 91 50 34 142
117 231 207 119 121 153 162 179 216 17 36 32 61 34 56 8 -36 86 -273 94 -287
7 -12 -1 -40 -31 -105 -22 -48 -45 -97 -51 -108 -6 -11 -45 -85 -86 -165 -66
-130 -73 -149 -68 -185 4 -26 16 -47 33 -62 l26 -21 -30 -29 c-95 -88 -77
-164 70 -295 91 -82 154 -126 242 -172 84 -44 125 -46 154 -10 40 51 27 92
-79 243 -59 85 -71 107 -61 120 6 9 27 48 47 86 68 131 206 374 218 385 10 7
16 -4 25 -48 16 -73 25 -110 49 -197 11 -38 27 -115 37 -170 9 -55 23 -116 30
-135 7 -19 16 -43 19 -52 4 -12 16 -18 36 -18 l30 0 -6 -84 c-7 -84 -7 -85 22
-114 l30 -29 177 3 c254 4 308 14 326 64 21 61 -59 107 -208 119 -71 6 -76 8
-79 30 -2 13 1 34 8 46 11 21 2 222 -18 383 l-8 62 45 0 c25 0 62 4 81 10 53
14 551 20 555 6 1 -6 10 -51 20 -101 31 -164 103 -281 230 -375 71 -52 143
-88 195 -100 25 -5 70 -16 100 -26 112 -33 319 -15 441 39 68 30 198 128 267
201 78 83 133 207 167 376 10 51 10 51 221 55 384 9 788 48 824 79 10 9 49 15
109 17 l94 4 -2 -75 c-3 -128 72 -343 142 -407 80 -71 192 -124 302 -142 66
-11 225 -8 270 5 70 21 172 81 244 144 102 90 164 174 214 291 36 84 41 106
46 199 l6 105 125 41 c91 31 136 51 165 76 22 20 50 38 63 42 21 7 22 12 22
121 0 106 -2 115 -25 143 -24 28 -25 37 -25 148 0 142 -33 452 -65 624 -23
119 -25 132 -35 188 -5 29 -11 56 -14 61 -3 5 -13 71 -22 147 -19 164 -46 275
-114 461 -110 303 -152 392 -217 458 -26 28 -61 68 -78 90 -51 70 -148 166
-206 205 -52 35 -220 120 -235 120 -4 0 -21 10 -38 23 -17 12 -44 28 -61 36
-16 7 -37 17 -45 22 -87 52 -296 128 -395 145 -16 2 -52 8 -80 13 -159 29
-235 42 -275 46 -25 3 -67 8 -95 12 -27 3 -57 7 -65 8 -8 1 -40 7 -70 13 -78
17 -665 65 -930 77 -354 16 -863 27 -1363 28 -307 1 -559 1 -560 1z m943 -69
c85 -3 342 -9 570 -15 403 -10 650 -24 970 -55 85 -8 205 -19 265 -24 61 -5
132 -14 158 -20 26 -6 109 -15 185 -21 75 -6 164 -18 197 -25 33 -8 87 -19
120 -26 50 -10 173 -52 335 -116 19 -8 44 -17 55 -20 20 -7 84 -39 209 -106
38 -20 74 -37 79 -37 6 0 39 -19 75 -42 61 -40 262 -242 262 -264 0 -5 16 -25
35 -44 25 -24 47 -64 76 -139 22 -59 56 -142 74 -186 63 -153 94 -240 110
-318 18 -84 15 -112 -5 -50 -19 58 -85 182 -127 239 -21 28 -54 73 -73 100
-44 61 -99 117 -146 149 -48 33 -145 35 -203 5 -64 -32 -82 -83 -77 -216 3
-60 8 -259 12 -442 7 -332 7 -333 30 -351 12 -10 35 -17 51 -16 15 1 109 8
208 14 99 7 232 16 295 20 63 5 118 6 121 2 3 -3 23 -107 44 -231 36 -210 39
-239 39 -437 1 -233 5 -219 -64 -255 -41 -21 -94 -58 -102 -71 -4 -7 -8 -22
-8 -34 0 -30 40 -32 58 -3 14 23 73 54 117 63 17 3 37 8 46 12 14 5 16 -1 12
-52 -5 -63 -21 -96 -55 -114 -49 -26 -269 -87 -273 -75 -3 6 -11 41 -19 79
-33 142 -118 260 -232 318 -64 32 -74 34 -169 34 -111 0 -117 -2 -207 -78 -76
-64 -124 -135 -174 -257 -28 -69 -114 -190 -138 -194 -35 -7 -188 -26 -241
-31 -66 -5 -257 -19 -269 -20 -5 0 -11 5 -13 11 -2 7 36 13 114 18 80 5 123
12 132 21 10 9 17 54 23 132 9 126 4 857 -8 1009 l-7 91 39 7 c22 3 100 9 174
12 173 7 373 22 394 30 28 11 29 52 7 243 -12 102 -28 258 -36 346 -35 398
-36 409 -54 428 -12 12 -43 22 -92 28 -79 10 -333 12 -386 2 -34 -5 -48 -26
-35 -50 7 -12 42 -15 198 -17 296 -5 262 3 268 -58 3 -29 8 -111 11 -182 3
-71 7 -131 9 -135 2 -3 7 -69 11 -146 7 -145 11 -192 19 -235 2 -14 7 -58 11
-98 5 -55 3 -73 -7 -77 -24 -8 -513 -21 -523 -14 -5 4 -11 45 -13 91 -2 45
-10 164 -18 263 -15 180 -37 619 -38 770 l-1 80 140 -2 c77 -1 215 -8 308 -17
170 -16 217 -12 217 18 0 30 -31 40 -128 42 -94 1 -168 7 -512 40 -225 21
-1032 29 -1430 14 -168 -6 -465 -13 -660 -15 -195 -2 -413 -9 -485 -15 -71 -6
-236 -15 -365 -20 -129 -5 -293 -14 -364 -19 l-129 -11 -63 60 c-87 84 -133
102 -267 108 -80 3 -126 0 -180 -13 -77 -18 -165 -64 -186 -97 -12 -19 -11
-20 16 -13 15 4 37 9 48 11 132 27 195 34 295 34 115 0 118 -1 161 -31 24 -17
59 -46 77 -63 40 -36 96 -142 88 -163 -3 -8 -1 -24 5 -35 14 -25 8 -31 -25
-22 -17 4 -40 25 -61 57 -40 60 -79 87 -123 87 -30 0 -101 -33 -142 -65 -8 -7
-27 -15 -42 -19 -31 -7 -41 6 -53 69 -3 22 -14 48 -22 57 -28 32 -97 56 -169
61 -81 6 -122 -8 -208 -70 -41 -29 -62 -37 -120 -44 -146 -17 -309 -45 -451
-79 -49 -12 -130 -30 -180 -40 -49 -10 -98 -22 -107 -25 -33 -13 -31 25 5 134
42 123 199 433 255 501 21 25 50 63 66 85 45 63 118 135 151 150 45 19 289 65
380 70 44 3 94 7 110 10 93 15 560 38 1020 51 132 4 242 9 245 11 2 2 77 2
165 -1 88 -4 230 -8 315 -11z m2056 -865 c2 -69 6 -304 9 -522 3 -219 10 -409
15 -422 6 -17 18 -26 37 -28 l28 -3 0 -635 c0 -349 -3 -691 -6 -759 l-6 -124
-39 -14 c-69 -25 -64 -24 -514 -47 -168 -9 -375 -21 -460 -26 -85 -6 -309 -14
-497 -17 -291 -5 -343 -4 -343 8 0 8 7 57 15 109 8 52 15 113 15 134 l0 39 98
-7 c482 -33 973 -40 1172 -17 131 15 230 37 248 54 14 15 15 30 4 149 -29 319
-66 483 -146 648 -32 67 -133 184 -167 195 -14 5 -18 12 -13 23 19 46 16 62
-20 102 -34 38 -36 43 -33 104 l2 65 80 6 c44 4 167 10 274 13 167 6 195 9
205 24 7 12 5 80 -7 240 -10 123 -24 331 -32 462 -10 153 -20 244 -27 254 -11
13 -74 13 -483 6 -258 -4 -526 -7 -595 -7 -116 2 -127 0 -150 -20 -64 -56 -88
-115 -93 -232 -5 -112 8 -197 38 -245 14 -22 21 -40 15 -40 -6 0 -40 -18 -75
-39 l-65 -40 0 107 c-1 129 -17 402 -25 424 -17 44 -95 46 -364 11 -97 -12
-136 -13 -175 -5 -129 28 -408 23 -596 -10 -109 -20 -167 -69 -210 -178 -17
-44 -21 -71 -19 -140 l3 -85 -31 -15 c-74 -36 -293 -268 -293 -311 0 -13 -7
-19 -21 -19 -11 0 -34 -8 -50 -17 -15 -9 -30 -15 -31 -12 -2 2 -30 34 -62 71
-37 44 -53 69 -44 72 114 33 202 67 238 91 82 55 144 175 162 318 7 47 15 77
22 77 7 0 20 6 29 13 17 12 17 17 -2 97 -36 158 -37 147 17 154 75 9 333 25
507 31 88 3 176 7 195 10 82 11 563 27 900 30 332 2 711 13 718 20 1 1 147 2
323 1 l321 -1 4 -125z m237 114 c20 -3 37 -9 38 -12 1 -4 3 -56 4 -116 2 -60
6 -139 9 -175 3 -36 10 -190 16 -341 6 -151 14 -329 20 -395 5 -66 12 -192 15
-280 3 -88 10 -203 15 -255 13 -132 21 -573 13 -762 l-6 -158 -31 -5 c-17 -3
-62 -7 -100 -9 l-69 -5 7 492 c6 448 -4 961 -20 1040 -4 18 -12 27 -25 27 -10
0 -19 -6 -20 -12 0 -7 -4 -1 -9 14 -7 24 -13 211 -25 781 l-4 188 67 -6 c37
-3 84 -8 105 -11z m-389 -307 c3 -84 8 -222 12 -307 3 -85 9 -209 14 -275 5
-65 8 -120 7 -121 -2 -2 -203 -12 -376 -20 l-93 -4 6 43 c8 54 -7 155 -30 202
-45 95 -162 185 -262 201 l-40 6 31 67 c41 87 45 197 9 279 -13 30 -22 55 -20
57 4 4 437 19 614 22 l122 1 6 -151z m-3032 60 c70 -69 87 -91 96 -129 7 -28
9 -56 4 -69 -8 -21 -9 -21 -15 9 -5 26 -10 31 -34 29 -25 -2 -28 -6 -28 -37 0
-32 2 -35 31 -35 25 0 29 -3 23 -15 -4 -8 -20 -43 -35 -77 -21 -49 -38 -71
-78 -101 -65 -50 -75 -55 -183 -91 l-90 -30 -54 20 c-32 13 -65 18 -82 15 -21
-4 -37 1 -60 18 -18 13 -42 26 -55 28 -22 3 -21 5 18 52 41 50 41 50 36 115
-3 37 -8 87 -12 113 -5 44 -3 50 24 78 35 35 57 38 74 10 22 -34 68 -19 68 22
0 12 21 27 65 48 35 16 90 48 121 70 32 22 63 40 69 40 6 0 50 -37 97 -83z
m-852 68 c0 -2 -6 -19 -14 -37 -8 -18 -17 -44 -20 -58 -3 -16 -19 -32 -42 -45
-49 -26 -109 -97 -128 -150 -10 -31 -14 -74 -11 -140 2 -89 5 -99 32 -133 38
-49 121 -89 213 -104 41 -6 77 -13 79 -14 1 -2 -8 -18 -22 -36 -48 -63 -162
-263 -197 -346 -36 -84 -35 -84 -96 -96 -4 0 -8 24 -9 54 -4 86 -15 204 -30
340 -15 125 -45 433 -45 458 0 8 -9 12 -22 10 -49 -7 -51 -82 -13 -458 8 -85
20 -222 26 -305 6 -82 14 -157 18 -165 5 -8 24 -16 45 -18 37 -3 44 -10 26
-28 -5 -5 -23 -46 -39 -92 -16 -45 -43 -99 -60 -119 -17 -21 -38 -56 -47 -78
-20 -48 -54 -181 -54 -213 0 -33 -23 -74 -67 -119 -186 -190 -319 -330 -371
-391 -59 -69 -63 -71 -71 -50 -21 49 -111 417 -121 491 -16 121 -13 571 5 715
28 227 73 461 115 594 119 385 117 382 188 392 26 3 56 8 67 11 21 4 68 15
175 40 36 8 90 20 120 26 30 5 93 19 139 30 46 12 113 24 150 29 36 4 69 8 74
9 4 0 7 -1 7 -4z m3076 -50 c35 -43 38 -52 41 -123 4 -69 2 -83 -24 -132 -21
-42 -34 -56 -53 -58 -37 -4 -80 -22 -126 -52 -38 -25 -47 -27 -114 -22 l-72 5
-20 46 c-34 76 -24 269 17 351 13 25 14 25 163 28 l150 2 38 -45z m-645 -152
c1 -93 0 -181 0 -198 -1 -16 3 -65 8 -108 9 -75 8 -82 -19 -140 -32 -69 -52
-186 -39 -231 5 -16 7 -31 6 -33 -2 -1 -84 -5 -183 -8 -338 -10 -438 -15 -486
-21 -37 -5 -48 -4 -47 7 0 8 6 66 12 129 l12 114 90 11 c76 10 105 19 183 59
148 77 212 170 212 307 0 96 -17 139 -81 205 l-50 51 33 2 c18 1 69 5 113 10
44 4 115 9 158 10 l77 1 1 -167z m-751 151 c0 -3 -7 -28 -16 -55 -12 -37 -15
-72 -12 -133 8 -118 50 -196 129 -236 32 -17 37 -25 43 -67 10 -72 -7 -80
-169 -74 -159 5 -284 47 -379 127 -53 44 -68 83 -67 175 0 118 37 197 104 224
24 10 103 23 182 30 174 16 185 16 185 9z m3694 -100 c9 -3 16 -15 16 -27 0
-31 48 -165 74 -206 65 -102 87 -158 96 -247 12 -108 58 -326 74 -352 14 -23
-22 -30 -214 -40 -156 -8 -206 -8 -212 1 -4 6 -7 102 -8 213 0 111 -3 271 -7
355 -13 251 -12 268 16 290 17 14 39 19 86 19 35 0 70 -3 79 -6z m-3284 -76
c32 -75 24 -169 -20 -233 -31 -45 -113 -114 -136 -115 -14 0 -24 23 -24 56 0
16 4 22 14 18 8 -3 23 3 34 14 16 16 19 29 15 68 -3 27 -11 66 -18 88 -16 45
-12 60 20 74 13 6 36 27 52 46 15 20 31 36 34 36 4 0 17 -24 29 -52z m3408
-30 c10 -24 40 -74 66 -112 48 -71 136 -243 136 -268 0 -8 4 -18 9 -24 19 -21
95 -242 95 -279 l1 -40 -53 -3 c-36 -2 -53 1 -56 10 -2 7 -11 65 -21 128 -19
128 -54 264 -84 331 -20 43 -76 144 -91 164 -14 19 -41 115 -35 125 10 16 13
13 33 -32z m-2386 -199 c68 -15 118 -40 169 -86 96 -87 115 -177 84 -404 l-18
-130 31 -45 32 -44 -34 0 c-36 0 -96 19 -163 51 -67 33 -93 57 -93 89 0 34
-57 100 -86 100 -28 0 -111 56 -130 87 -36 58 -79 71 -90 28 -10 -40 64 -118
153 -161 l73 -34 0 -41 c0 -35 6 -47 36 -76 20 -18 58 -45 85 -59 27 -13 49
-28 49 -33 0 -22 -89 -139 -128 -168 -85 -65 -202 -71 -271 -15 -22 18 -44 32
-50 32 -20 0 -30 33 -14 45 21 16 19 61 -3 86 -11 12 -35 29 -54 39 -20 10
-57 41 -84 70 l-48 51 4 79 c3 67 7 82 28 105 29 30 20 54 -25 70 -25 9 -31 6
-65 -34 l-37 -43 -7 26 c-11 44 5 139 32 184 31 54 135 146 167 149 13 1 33 7
44 12 11 6 57 11 102 11 70 0 86 3 105 21 26 24 87 48 126 49 15 0 51 -5 80
-11z m-1880 -102 c78 -59 151 -90 260 -113 61 -12 115 -27 121 -33 10 -10 -3
-224 -14 -235 -2 -2 -82 -7 -178 -10 -107 -3 -179 -10 -187 -17 -8 -6 -14 -22
-14 -35 0 -32 33 -39 113 -26 34 6 199 13 367 16 317 5 651 21 732 35 l46 8
11 -60 c6 -33 17 -70 26 -83 15 -24 15 -24 -49 -54 -98 -47 -178 -110 -242
-193 l-57 -75 -81 5 c-69 5 -89 2 -133 -17 -62 -26 -126 -92 -156 -158 -26
-61 -35 -179 -14 -207 14 -18 12 -21 -37 -43 -101 -48 -125 -90 -146 -257 -15
-110 -11 -149 13 -153 23 -5 47 52 47 110 0 59 26 176 45 204 19 30 59 33 50
5 -7 -24 23 -58 60 -67 31 -8 110 20 128 46 12 17 16 17 99 -2 74 -17 91 -25
124 -59 l37 -38 -13 -42 -14 -42 -86 9 c-196 19 -254 4 -278 -73 -16 -49 -42
-206 -42 -248 0 -18 -3 -47 -6 -64 l-6 -31 -79 0 c-43 0 -80 3 -82 8 -3 4 -10
52 -17 107 -8 74 -16 105 -31 120 -34 34 -44 7 -44 -118 0 -110 0 -111 -25
-119 -21 -6 -371 -28 -377 -24 -1 1 -14 62 -28 136 -26 135 -100 376 -156 512
-30 74 -31 98 -4 98 8 0 15 3 15 8 0 4 4 13 9 21 7 11 31 -6 105 -73 106 -96
125 -106 197 -106 65 0 92 12 229 105 143 96 180 129 180 162 0 63 -22 271
-31 292 -7 18 -6 28 6 41 32 35 12 140 -35 185 -26 25 -29 33 -24 66 6 33 3
42 -25 69 -31 32 -31 32 -109 25 -84 -8 -194 -52 -212 -85 -9 -17 -13 -17 -38
-4 -15 7 -37 14 -49 14 -33 0 -52 10 -47 25 3 8 -5 46 -17 85 l-23 71 92 92
c51 51 92 100 92 108 0 9 -15 24 -32 32 -32 15 -34 15 -63 -11 -52 -48 -76
-74 -102 -113 l-26 -39 -43 40 c-24 22 -49 40 -56 40 -62 1 -36 54 82 171 47
47 106 97 131 110 l44 25 17 -27 c9 -15 31 -38 50 -52z m-887 -86 c36 -34 83
-51 141 -51 38 0 46 -5 83 -47 69 -81 139 -238 157 -351 9 -54 16 -57 176 -72
119 -11 212 -25 227 -34 4 -3 2 -40 -4 -83 l-11 -78 -34 2 c-19 1 -107 7 -195
13 -88 6 -228 11 -311 11 l-150 -1 -44 45 c-45 46 -67 54 -88 33 -21 -21 -13
-42 24 -72 l36 -29 -4 -78 c-3 -44 -7 -82 -10 -85 -5 -4 -135 27 -223 55 -16
5 -64 28 -105 50 -41 23 -94 51 -117 63 -24 12 -43 25 -43 28 0 3 22 56 49
117 56 128 193 369 261 460 43 58 123 131 145 132 5 1 23 -12 40 -28z m524
-209 c49 -25 88 -77 121 -168 17 -43 30 -79 30 -80 0 -1 -133 17 -179 24 -36
6 -46 12 -52 32 -45 157 -50 182 -38 196 16 19 76 17 118 -4z m613 -284 c-16
-16 -114 -17 -119 0 -4 9 13 12 63 12 53 0 65 -3 56 -12z m-183 -71 c10 -23
25 -47 32 -54 15 -12 74 -10 154 5 28 6 53 8 56 6 11 -6 29 -92 24 -106 -7
-17 -72 -35 -175 -48 -41 -5 -90 -14 -109 -19 -19 -6 -66 -13 -105 -16 -188
-15 -309 -27 -396 -40 -52 -9 -131 -20 -175 -25 -100 -13 -105 -15 -105 -40 0
-35 36 -39 175 -19 191 27 170 38 187 -93 14 -101 14 -115 0 -131 -16 -18
-160 -66 -300 -98 -48 -12 -107 -27 -131 -35 -56 -18 -67 -9 -75 59 -4 28 -13
84 -21 122 -7 39 -16 89 -18 113 l-5 43 33 -7 c30 -5 35 -3 48 23 8 15 20 56
28 91 l13 63 331 -6 c347 -6 382 -3 418 37 12 14 17 37 17 75 0 30 5 64 11 76
9 18 58 67 67 67 1 0 11 -19 21 -43z m1349 -50 c-2 -57 43 -139 98 -179 63
-45 102 -58 179 -58 86 0 150 34 251 134 45 45 86 89 91 99 7 13 25 19 72 22
53 3 69 0 100 -20 96 -61 185 -187 227 -320 30 -94 66 -287 56 -296 -7 -6
-124 -25 -223 -36 -42 -5 -47 -3 -52 18 -4 13 -7 42 -8 64 -1 69 -44 344 -55
355 -16 16 -43 1 -50 -27 -4 -14 -2 -71 5 -127 6 -55 16 -144 22 -196 19 -173
45 -183 293 -116 33 9 63 13 67 9 4 -4 12 -53 18 -108 13 -127 7 -139 -76
-149 -94 -11 -407 -25 -568 -26 -209 0 -828 41 -844 56 -3 3 3 18 12 33 29 49
20 88 -31 143 -24 26 -24 28 -6 33 52 17 83 36 105 65 44 58 80 90 99 90 11 0
20 7 20 15 0 9 7 29 15 45 14 26 14 34 1 65 -14 32 -18 35 -59 35 -43 0 -44 1
-58 43 -8 27 -32 60 -66 93 l-53 51 83 80 c103 100 126 115 212 145 62 22 73
23 97 11 22 -11 27 -20 26 -46z m-2728 -175 c129 -71 159 -85 231 -108 44 -14
79 -31 79 -37 0 -15 -93 -233 -140 -327 -64 -128 -156 -223 -447 -464 -73 -60
-159 -127 -190 -149 -32 -21 -64 -45 -72 -52 -12 -11 -21 -8 -57 22 -24 20
-70 66 -103 103 l-60 67 187 189 c251 253 277 289 308 412 14 53 32 124 40
157 9 38 35 90 70 143 61 93 64 94 154 44z m1638 -84 c13 -93 15 -207 4 -224
-11 -17 -182 -128 -232 -151 -73 -34 -93 -35 -128 -9 -18 13 -88 77 -156 144
-119 116 -124 122 -131 171 -4 28 -5 51 -2 51 3 0 63 6 134 14 70 8 173 18
228 22 138 10 135 9 187 23 26 7 53 19 59 27 21 25 26 15 37 -68z m592 12 c30
-10 49 -19 43 -19 -7 -1 -13 -7 -13 -15 0 -19 21 -26 43 -14 23 12 32 5 64
-49 37 -64 39 -168 3 -233 -14 -25 -39 -52 -55 -60 -40 -20 -185 -19 -245 3
-32 12 -48 13 -57 5 -21 -17 -41 -3 -36 26 4 17 -4 36 -23 62 -73 95 1 257
136 299 59 18 74 17 140 -5z m255 -190 c3 -5 1 -18 -4 -27 -6 -10 -11 -13 -11
-6 0 6 -3 18 -6 27 -7 17 11 22 21 6z m-2142 -87 c8 -16 20 -66 28 -112 16
-105 25 -115 97 -106 33 4 52 3 48 -3 -5 -8 48 -121 107 -227 36 -65 67 -138
67 -156 0 -23 -67 -159 -160 -324 -38 -66 -81 -146 -96 -177 -16 -32 -31 -58
-35 -58 -12 0 -113 82 -176 143 l-62 60 30 51 c17 28 45 83 64 121 18 39 58
123 89 188 32 67 56 132 56 150 0 50 -67 302 -103 387 -14 32 -14 37 5 62 10
16 21 28 23 28 3 0 11 -12 18 -27z m588 -203 c100 -236 136 -348 158 -494 20
-123 71 -535 71 -567 0 -15 -49 -31 -138 -44 l-42 -7 -24 54 c-22 50 -33 91
-76 273 -72 310 -121 455 -217 647 -42 82 -74 150 -72 152 15 11 106 35 139
36 3 0 37 11 75 25 39 13 74 23 78 22 5 -2 26 -45 48 -97z m1037 68 c-5 -15
-58 -24 -58 -10 0 15 12 22 38 22 14 0 22 -5 20 -12z m3466 -17 c62 -29 137
-104 171 -171 14 -28 37 -102 50 -163 19 -96 22 -125 15 -207 -16 -187 -25
-205 -174 -347 -186 -177 -232 -200 -406 -202 -120 -1 -184 13 -262 58 -102
57 -170 178 -208 366 -6 33 -18 76 -25 96 l-12 36 71 8 c39 4 85 8 101 10 47
3 112 42 143 84 28 38 60 101 120 231 48 104 144 201 222 222 47 13 144 2 194
-21z m-3236 -278 l102 -6 0 -36 c0 -20 -7 -93 -17 -163 l-17 -128 -174 0 -174
0 6 28 c3 15 8 56 11 92 8 85 24 176 36 207 9 25 12 25 67 19 31 -3 103 -9
160 -13z m-3130 -48 c24 -69 45 -115 52 -115 12 0 60 -82 54 -92 -15 -25 -59
-29 -124 -12 -36 9 -70 22 -77 28 -6 6 -23 56 -38 111 -32 117 -29 122 62 121
l57 -1 14 -40z m194 -264 c2 -5 29 -30 61 -57 l57 -49 6 -125 c9 -188 9 -200
-5 -200 -29 0 -150 218 -191 343 -11 36 -11 40 17 67 28 30 49 37 55 21z
m3943 -98 c-4 -27 -22 -92 -40 -145 -26 -78 -43 -109 -86 -160 -176 -206 -267
-253 -487 -251 -142 2 -211 18 -327 74 -88 42 -197 139 -221 196 -8 17 -23 38
-33 45 -11 8 -26 34 -35 59 -20 63 -46 155 -46 167 0 5 69 12 163 16 89 3 210
9 270 12 l107 7 0 -57 c0 -98 37 -152 105 -156 82 -5 96 -1 147 48 47 45 51
53 56 105 l4 56 72 5 c219 17 304 23 329 24 28 2 28 2 22 -45z m-513 5 c16
-25 -1 -72 -39 -105 -44 -39 -56 -41 -88 -8 -29 29 -34 94 -9 119 18 19 122
14 136 -6z m-2410 -323 c32 -25 64 -60 72 -78 8 -17 27 -46 43 -64 15 -17 42
-52 58 -79 87 -137 89 -144 52 -144 -13 0 -36 14 -53 31 -16 17 -50 46 -77 64
-59 40 -213 179 -235 213 -16 25 -16 26 27 63 24 22 46 39 50 39 3 0 32 -20
63 -45z m863 -222 c12 -66 17 -70 107 -77 46 -4 99 -12 118 -18 l35 -12 -30
-6 c-16 -3 -86 -7 -155 -8 -69 -1 -141 -4 -161 -8 l-36 -5 -16 67 c-19 75 -15
83 38 85 17 0 39 4 50 9 35 15 43 11 50 -27z"/>
<path d="M7590 4900 c-52 -4 -132 -8 -177 -9 -70 -1 -86 -4 -108 -24 -30 -25
-26 -54 9 -63 12 -3 107 -1 210 4 170 9 190 11 209 30 18 18 19 25 9 47 -8 17
-19 24 -34 23 -13 -1 -66 -5 -118 -8z"/>
<path d="M3418 5845 c-9 -21 -9 -29 4 -41 12 -13 20 -14 37 -5 23 13 28 40 9
59 -19 19 -37 14 -50 -13z"/>
<path d="M3410 5686 c0 -7 10 -28 23 -47 17 -25 31 -35 56 -37 49 -5 93 16 89
42 -3 22 -24 26 -64 12 -16 -5 -30 1 -52 19 -33 28 -52 32 -52 11z"/>
<path d="M2250 5819 c-219 -45 -239 -53 -275 -107 -30 -45 -66 -237 -95 -507
-10 -96 -34 -258 -55 -382 -7 -37 -5 -43 20 -59 26 -17 35 -16 268 16 133 18
252 37 265 41 23 9 29 42 13 68 -7 12 -13 12 -24 3 -7 -7 -16 -10 -19 -7 -2 3
-83 -6 -179 -19 -163 -22 -269 -35 -269 -32 0 0 7 39 15 86 37 207 81 529 91
657 5 66 11 96 23 106 17 15 239 67 282 67 14 0 34 6 44 14 18 13 18 15 2 40
-19 28 -33 30 -107 15z"/>
<path d="M5411 5166 c-19 -23 -4 -56 25 -56 28 0 42 25 27 49 -14 22 -37 25
-52 7z"/>
<path d="M5485 4975 c-12 -10 -30 -13 -52 -9 -36 7 -43 -5 -17 -26 22 -19 70
-16 94 5 39 35 17 61 -25 30z"/>
<path d="M5416 4516 c-53 -12 -80 -55 -84 -137 l-4 -67 -41 -8 c-28 -6 -43
-15 -45 -27 -6 -29 18 -49 50 -43 104 22 100 25 62 -40 -18 -30 -24 -52 -20
-69 8 -30 47 -58 70 -49 21 8 31 47 17 72 -12 22 -6 32 19 32 27 0 70 39 70
64 0 30 -40 67 -82 75 -32 7 -33 8 -36 63 -4 81 -2 82 243 75 110 -3 212 -10
226 -15 35 -14 43 -58 28 -151 -11 -77 -4 -101 31 -101 33 0 42 27 44 129 1
113 -11 142 -75 173 -53 26 -392 44 -473 24z"/>
<path d="M7920 3859 c-13 -6 -33 -18 -44 -27 -33 -29 -76 -105 -76 -133 0 -15
-4 -31 -10 -34 -11 -7 -13 -45 -4 -69 7 -19 53 -22 58 -3 35 117 40 128 77
162 32 29 47 35 83 35 39 0 48 -5 84 -44 74 -81 75 -188 0 -300 -80 -121 -254
-174 -336 -102 -27 23 -37 27 -50 19 -39 -25 8 -84 81 -104 103 -28 250 17
336 103 53 53 67 80 86 160 49 209 -37 350 -215 347 -25 0 -56 -5 -70 -10z"/>
<path d="M8813 3405 c0 -44 2 -61 4 -37 2 23 2 59 0 80 -2 20 -4 1 -4 -43z"/>
<path d="M8813 3015 c0 -44 2 -61 4 -37 2 23 2 59 0 80 -2 20 -4 1 -4 -43z"/>
<path d="M7018 2673 c6 -2 18 -2 25 0 6 3 1 5 -13 5 -14 0 -19 -2 -12 -5z"/>
<path d="M6258 2553 c7 -3 16 -2 19 1 4 3 -2 6 -13 5 -11 0 -14 -3 -6 -6z"/>
</g>
</svg>
